<svg aria-hidden="true" style="position: absolute; width: 0; height: 0; overflow: hidden;" version="1.1" xmlns="http://www.w3.org/2000/svg" xmlns:xlink="http://www.w3.org/1999/xlink">
<defs>
<symbol id="icon-refresh-round" viewBox="0 0 32 32">
<path d="M9.347 8.131c-0.204 0.186-0.218 0.503-0.032 0.706s0.503 0.218 0.706 0.032l-0.675-0.738zM21.791 24.677c0.226-0.159 0.279-0.471 0.12-0.697s-0.471-0.279-0.697-0.12l0.577 0.817zM16.071 25.499c-5.040 0-9.155-4.236-9.155-9.5h-1c0 5.782 4.53 10.5 10.155 10.5v-1zM16.071 6.5c5.040 0 9.155 4.236 9.155 9.5h1c0-5.782-4.53-10.5-10.155-10.5v1zM10.022 8.869c1.615-1.476 3.732-2.369 6.049-2.369v-1c-2.58 0-4.935 0.996-6.724 2.631l0.675 0.738zM21.214 23.86c-1.467 1.035-3.237 1.639-5.143 1.639v1c2.122 0 4.091-0.673 5.719-1.822l-0.577-0.817zM25.226 16v3.572h1v-3.572h-1zM6.916 16v-2.251h-1v2.251h1z"></path>
<path fill="none" stroke="#000" style="stroke: var(--color1, #000)" stroke-linejoin="round" stroke-linecap="round" stroke-miterlimit="4" stroke-width="1" d="M22.877 16l2.85 3.8 2.85-3.8"></path>
<path fill="none" stroke="#000" style="stroke: var(--color1, #000)" stroke-linejoin="round" stroke-linecap="round" stroke-miterlimit="4" stroke-width="1" d="M9.266 17.074l-2.85-3.8-2.85 3.8"></path>
</symbol>
<symbol id="icon-photo" viewBox="0 0 39 32">
<path stroke-linejoin="miter" stroke-linecap="butt" stroke-miterlimit="4" stroke-width="0.3902" d="M26.526 18.424c0 3.347-3.228 6.060-7.209 6.060s-7.209-2.713-7.209-6.060c0-3.347 3.228-6.060 7.209-6.060s7.209 2.713 7.209 6.060z"></path>
<path stroke-linejoin="miter" stroke-linecap="butt" stroke-miterlimit="4" stroke-width="0.3902" d="M0.573 26.78v-14.77c0-2.482 2.394-4.494 5.347-4.494 2.025 0 3.877-0.962 4.782-2.484l1.212-2.037c1.003-1.686 3.052-2.75 5.294-2.75h4.218c2.242 0 4.292 1.065 5.294 2.75l1.212 2.037c0.906 1.523 2.757 2.484 4.782 2.484 2.953 0 5.347 2.012 5.347 4.494v14.77c0 2.748-2.65 4.976-5.919 4.976h-25.65c-3.269 0-5.919-2.228-5.919-4.976z"></path>
</symbol>
<symbol id="icon-arrow-left" viewBox="0 0 32 32">
<path fill="none" stroke="#fff" style="stroke: var(--color2, #fff)" stroke-linejoin="round" stroke-linecap="round" stroke-miterlimit="4" stroke-width="1.3333" d="M25.996 16l-19.996 0.004M6 16.004l5.384 5.386M6 16.004l5.384-5.386"></path>
</symbol>
<symbol id="icon-arrow-right" viewBox="0 0 32 32">
<path fill="none" stroke="#fff" style="stroke: var(--color2, #fff)" stroke-linejoin="round" stroke-linecap="round" stroke-miterlimit="4" stroke-width="1.3333" d="M6 16.004l19.996-0.004M25.996 16l-5.384-5.386M25.996 16l-5.384 5.386"></path>
</symbol>
<symbol id="icon-burger" viewBox="0 0 31 32">
<path fill="none" stroke="#fff" style="stroke: var(--color2, #fff)" stroke-linejoin="miter" stroke-linecap="round" stroke-miterlimit="4" stroke-width="1.2929" d="M7.273 9.535h16.485M7.273 21.172h16.485M7.273 15.354h16.485"></path>
</symbol>
<symbol id="icon-check-white" viewBox="0 0 32 32">
<path fill="none" stroke="#fff" style="stroke: var(--color2, #fff)" stroke-linejoin="round" stroke-linecap="round" stroke-miterlimit="4" stroke-width="3" d="M7 14.941l6.667 7.059 11.333-12"></path>
</symbol>
<symbol id="icon-chevron-down" viewBox="0 0 46 32">
<path stroke-linejoin="round" stroke-linecap="round" stroke-miterlimit="4" stroke-width="4.5714" d="M43.429 5.714l-20.571 20.571-20.571-20.571"></path>
</symbol>
<symbol id="icon-Icon-down" viewBox="0 0 30 32">
<path fill="none" stroke="currentColor" stroke-linejoin="round" stroke-linecap="round" stroke-miterlimit="4" stroke-width="1.8824" d="M23.529 11.765l-8.471 8.471-8.471-8.471"></path>
</symbol>
<symbol  id="icon-icon-up" viewBox="0 0 32 32">
<path fill="none" stroke="currentColor" stroke-linejoin="round" stroke-linecap="round" stroke-miterlimit="4" stroke-width="2" d="M7 20.5l9-9 9 9"></path>
</symbol>
<symbol id="icon-clock" viewBox="0 0 32 32">
<path stroke-linejoin="round" stroke-linecap="round" stroke-miterlimit="4" stroke-width="0.6667" d="M16 10.154v6.577l4.385 3.654M25.5 16c0 5.247-4.253 9.5-9.5 9.5s-9.5-4.253-9.5-9.5c0-5.247 4.253-9.5 9.5-9.5s9.5 4.253 9.5 9.5z"></path>
</symbol>
<symbol id="icon-close" viewBox="0 0 32 32">
<path stroke-linejoin="round" stroke-linecap="round" stroke-miterlimit="4" stroke-width="2" d="M2.5 2.5l13.5 13.5M16 16l-13.5 13.5M16 16l13.5 13.5M16 16l13.5-13.5"></path>
</symbol>
<symbol id="icon-close-with-circle" viewBox="0 0 32 32">
<path fill="none" stroke="#fff" style="stroke: var(--color2, #fff)" stroke-linejoin="miter" stroke-linecap="butt" stroke-miterlimit="4" stroke-width="1.3333" d="M25.5 16c0 5.247-4.253 9.5-9.5 9.5s-9.5-4.253-9.5-9.5c0-5.247 4.253-9.5 9.5-9.5s9.5 4.253 9.5 9.5z"></path>
<path fill="none" stroke="#fff" style="stroke: var(--color2, #fff)" stroke-linejoin="miter" stroke-linecap="round" stroke-miterlimit="4" stroke-width="1.3333" d="M19.699 12.346l-3.699 3.699M16 16.046l-3.699 3.699M16 16.046l3.699 3.699M16 16.046l-3.699-3.699"></path>
</symbol>
<symbol id="icon-favorites-black" viewBox="0 0 32 32">
<path stroke-linejoin="round" stroke-linecap="round" stroke-miterlimit="4" stroke-width="1.3333" d="M15.996 4.667c1.685 0 3.231 0.161 4.457 0.348 1.552 0.236 2.768 1.299 3.115 2.785 0.418 1.794 0.828 4.522 0.758 8.187-0.078 4.044-0.668 6.962-1.237 8.866-0.154 0.515-0.51 0.78-0.913 0.848-0.421 0.071-0.941-0.069-1.363-0.49-0.769-0.766-1.65-1.593-2.462-2.232-0.405-0.319-0.809-0.604-1.184-0.811-0.353-0.196-0.767-0.374-1.171-0.374-0.397 0-0.825 0.175-1.199 0.367-0.399 0.205-0.84 0.486-1.292 0.805-0.905 0.639-1.907 1.466-2.789 2.233-0.466 0.405-1.014 0.5-1.447 0.383-0.417-0.114-0.769-0.434-0.878-0.992-0.372-1.917-0.725-4.749-0.725-8.59 0-3.831 0.395-6.534 0.788-8.273 0.326-1.442 1.502-2.468 3.014-2.702 1.236-0.191 2.81-0.358 4.527-0.358z"></path>
</symbol>
<symbol id="icon-favorites-white" viewBox="0 0 32 32">
<path fill="none" stroke="#fff" style="stroke: var(--color2, #fff)" stroke-linejoin="round" stroke-linecap="round" stroke-miterlimit="4" stroke-width="1.3333" d="M15.996 4.667c1.685 0 3.231 0.161 4.457 0.348 1.552 0.236 2.768 1.299 3.115 2.785 0.418 1.794 0.828 4.522 0.758 8.187-0.078 4.044-0.668 6.962-1.237 8.866-0.154 0.515-0.51 0.78-0.913 0.848-0.421 0.071-0.941-0.069-1.363-0.49-0.769-0.766-1.65-1.593-2.462-2.232-0.405-0.319-0.809-0.604-1.184-0.811-0.353-0.196-0.767-0.374-1.171-0.374-0.397 0-0.825 0.175-1.199 0.367-0.399 0.205-0.84 0.486-1.292 0.805-0.905 0.639-1.907 1.466-2.789 2.233-0.466 0.405-1.014 0.5-1.447 0.383-0.417-0.114-0.769-0.434-0.878-0.992-0.372-1.917-0.725-4.749-0.725-8.59 0-3.831 0.395-6.534 0.788-8.273 0.326-1.442 1.502-2.468 3.014-2.702 1.236-0.191 2.81-0.358 4.527-0.358z"></path>
</symbol>
<symbol id="icon-filters" viewBox="0 0 31 32">
<path stroke-linejoin="miter" stroke-linecap="butt" stroke-miterlimit="4" stroke-width="1.28" d="M8.552 7.84h13.616c1.012 0 1.832 0.82 1.832 1.832 0 0.468-0.179 0.918-0.5 1.258l-6.146 6.511v4.507c0 1.469-1.535 2.434-2.859 1.796-0.69-0.332-1.129-1.031-1.129-1.796v-4.507l-6.146-6.511c-0.321-0.34-0.5-0.79-0.5-1.258 0-1.012 0.82-1.832 1.832-1.832z"></path>
</symbol>
<symbol id="icon-close-filters" viewBox="0 0 32 32">
<path fill="none"  stroke-linejoin="miter" stroke-linecap="butt" stroke-miterlimit="4" stroke-width="1.3333" d="M25.5 16c0 5.247-4.253 9.5-9.5 9.5s-9.5-4.253-9.5-9.5c0-5.247 4.253-9.5 9.5-9.5s9.5 4.253 9.5 9.5z"></path>
<path stroke-linejoin="miter" stroke-linecap="round" stroke-miterlimit="4" stroke-width="1.3333" d="M19.699 12.346l-3.699 3.699M16 16.045l-3.699 3.699M16 16.045l3.699 3.699M16 16.045l-3.699-3.699"></path>
</symbol>
<symbol id="icon-hide-password" viewBox="0 0 32 32">
<path stroke-linejoin="miter" stroke-linecap="round" stroke-miterlimit="4" stroke-width="1.3333" d="M19.214 22.65c-1.086 0.504-2.291 0.833-3.56 0.833-4.779 0-8.654-4.655-8.654-5.838 0-0.67 1.245-2.456 3.194-3.878M23.269 19.516c0.662-0.797 1.038-1.502 1.038-1.871 0-1.183-3.874-5.837-8.654-5.837 2.103 0 3.808 1.691 3.808 3.777M15.654 19.362c-2.103 0-3.808-1.691-3.808-3.777M25 11.807c-2.636-2.181-5.713-3.434-9-3.434-1.185 0-2.342 0.163-3.462 0.473M7 11.807c0.244-0.202 0.492-0.396 0.744-0.582M7 7l16.714 16.875"></path>
</symbol>
<symbol id="icon-home-black" viewBox="0 0 31 32">
<path d="M6.24 16.503v0zM6.24 23.722v0zM23.077 25.12v0zM7.643 25.12v0zM24.48 16.503v0zM24.48 23.722v0zM23.738 14.608v0zM17.424 7.781v0zM13.296 7.781v0zM6.982 14.608v0zM12.554 18.131v0zM12.554 24.421v0zM17.465 25.12v0zM13.255 25.12v0zM18.166 18.131v0zM18.166 24.421v0zM17.465 17.432v0zM13.255 17.432v0zM6.24 16.503h-0.48v7.219h0.96v-7.219h-0.48zM23.077 25.12v-0.48h-15.434v0.96h15.434v-0.48zM24.48 16.503h-0.48v7.219h0.96v-7.219h-0.48zM23.738 14.608l0.352-0.326-6.314-6.827-0.705 0.652 6.314 6.827 0.352-0.326zM13.296 7.781l-0.352-0.326-6.314 6.827 0.705 0.652 6.314-6.827-0.352-0.326zM17.424 7.781l0.352-0.326c-1.302-1.407-3.531-1.407-4.832 0l0.705 0.652c0.921-0.996 2.501-0.996 3.423 0l0.352-0.326zM24.48 16.503h0.48c0-0.823-0.311-1.616-0.87-2.22l-0.705 0.652c0.396 0.428 0.615 0.988 0.615 1.569h0.48zM6.24 16.503h0.48c0-0.581 0.219-1.141 0.615-1.569l-0.705-0.652c-0.559 0.605-0.87 1.397-0.87 2.22h0.48zM6.24 23.722h-0.48c0 1.039 0.845 1.878 1.883 1.878v-0.96c-0.511 0-0.923-0.413-0.923-0.918h-0.48zM23.077 25.12v0.48c1.038 0 1.883-0.839 1.883-1.878h-0.96c0 0.505-0.412 0.918-0.923 0.918v0.48zM12.554 18.131h-0.48v6.29h0.96v-6.29h-0.48zM17.465 25.12v-0.48h-4.209v0.96h4.209v-0.48zM18.166 18.131h-0.48v6.29h0.96v-6.29h-0.48zM17.465 17.432v-0.48h-4.209v0.96h4.209v-0.48zM18.166 18.131h0.48c0-0.653-0.531-1.179-1.182-1.179v0.96c0.124 0 0.222 0.1 0.222 0.219h0.48zM12.554 18.131h0.48c0-0.119 0.098-0.219 0.222-0.219v-0.96c-0.651 0-1.182 0.526-1.182 1.179h0.48zM12.554 24.421h-0.48c0 0.653 0.531 1.179 1.182 1.179v-0.96c-0.124 0-0.222-0.1-0.222-0.219h-0.48zM17.465 25.12v0.48c0.651 0 1.182-0.526 1.182-1.179h-0.96c0 0.119-0.098 0.219-0.222 0.219v0.48z"></path>
</symbol>
<symbol id="icon-home-white" viewBox="0 0 32 32">
<path fill="#fff" style="fill: var(--color2, #fff)" d="M6.5 16.524v0zM6.5 24.044v0zM24.038 25.5v0zM7.962 25.5v0zM25.5 16.524v0zM25.5 24.044v0zM24.727 14.55v0zM18.15 7.439v0zM13.85 7.439v0zM7.273 14.55v0zM13.077 18.219v0zM13.077 24.772v0zM18.192 25.5v0zM13.808 25.5v0zM18.923 18.219v0zM18.923 24.772v0zM18.192 17.491v0zM13.808 17.491v0zM6.5 16.524h-0.333v7.52h0.667v-7.52h-0.333zM24.038 25.5v-0.333h-16.077v0.667h16.077v-0.333zM25.5 16.524h-0.333v7.52h0.667v-7.52h-0.333zM24.727 14.55l0.245-0.226-6.577-7.112-0.489 0.453 6.577 7.112 0.245-0.226zM13.85 7.439l-0.245-0.226-6.577 7.111 0.489 0.453 6.577-7.111-0.245-0.226zM18.15 7.439l0.245-0.226c-1.29-1.394-3.499-1.394-4.789 0l0.489 0.453c1.026-1.109 2.784-1.109 3.81 0l0.245-0.226zM25.5 16.524h0.333c0-0.815-0.308-1.6-0.862-2.2l-0.489 0.453c0.441 0.476 0.685 1.1 0.685 1.747h0.333zM6.5 16.524h0.333c0-0.647 0.244-1.271 0.685-1.747l-0.489-0.453c-0.554 0.599-0.862 1.385-0.862 2.2h0.333zM6.5 24.044h-0.333c0 0.989 0.805 1.789 1.795 1.789v-0.667c-0.624 0-1.128-0.504-1.128-1.123h-0.333zM24.038 25.5v0.333c0.99 0 1.795-0.8 1.795-1.789h-0.667c0 0.619-0.504 1.123-1.128 1.123v0.333zM13.077 18.219h-0.333v6.553h0.667v-6.553h-0.333zM18.192 25.5v-0.333h-4.385v0.667h4.385v-0.333zM18.923 18.219h-0.333v6.553h0.667v-6.553h-0.333zM18.192 17.491v-0.333h-4.385v0.667h4.385v-0.333zM18.923 18.219h0.333c0-0.587-0.478-1.061-1.064-1.061v0.667c0.221 0 0.397 0.178 0.397 0.395h0.333zM13.077 18.219h0.333c0-0.217 0.177-0.395 0.397-0.395v-0.667c-0.587 0-1.064 0.474-1.064 1.061h0.333zM13.077 24.772h-0.333c0 0.587 0.478 1.061 1.064 1.061v-0.667c-0.221 0-0.397-0.178-0.397-0.395h-0.333zM18.192 25.5v0.333c0.587 0 1.064-0.474 1.064-1.061h-0.667c0 0.217-0.177 0.395-0.397 0.395v0.333z"></path>
</symbol>
<symbol id="icon-logo" viewBox="0 0 34 32">
<path fill="#fff" style="fill: var(--color2, #fff)" d="M14.649 5.99c0.344-0.036 0.698 0.001 1.032 0.084 0.989 0.247 1.659 0.854 2.169 1.703 0.405-0.043 0.814-0.018 1.211 0.074 0.846 0.21 1.576 0.737 2.034 1.469 0.226 0.361 0.376 0.763 0.441 1.182s0.044 0.847-0.062 1.258c-0.283 1.070-0.962 1.626-1.887 2.16 0.026 0.657 0.016 1.316 0.017 1.974 0.001 0.415 0.028 0.848-0.013 1.26-0.017 0.175-0.052 0.318-0.142 0.469-0.133 0.095-0.269 0.124-0.43 0.143-0.423 0.051-0.883 0.016-1.31 0.015l-2.516-0.009c-0.895 0.066-1.843 0.004-2.743 0.004-0.599 0.001-1.274 0.071-1.866 0.004-0.211-0.024-0.301-0.163-0.417-0.318-0.075-1.179-0.011-2.397-0.011-3.58-0.493-0.252-0.912-0.561-1.256-0.996-0.256-0.324-0.445-0.695-0.554-1.092s-0.139-0.81-0.085-1.218c0.129-0.867 0.598-1.65 1.308-2.178 0.702-0.518 1.532-0.73 2.397-0.611 0.12-0.209 0.241-0.418 0.39-0.609 0.576-0.734 1.379-1.077 2.292-1.192zM14.697 7.437c-0.562 0.11-1.045 0.311-1.384 0.797-0.19 0.272-0.363 1.053-0.599 1.173-0.313 0.037-0.64-0.107-0.944-0.173-0.609-0.132-1.297 0.109-1.674 0.598-0.31 0.402-0.456 0.957-0.373 1.456 0.075 0.452 0.351 0.83 0.729 1.089 0.412 0.282 0.872 0.339 1.157 0.782 0.052 1.027 0.014 2.072 0.016 3.102 1.199-0.009 2.398-0.012 3.597-0.008l2.929-0.006c-0-0.522-0.113-3.117 0.131-3.372 0.115-0.119 0.377-0.192 0.532-0.252 0.698-0.271 1.208-0.741 1.272-1.515 0.042-0.511-0.125-0.97-0.468-1.351-0.313-0.347-0.721-0.531-1.192-0.559-0.413-0.024-1.263 0.365-1.522 0.075-0.126-0.141-0.177-0.384-0.241-0.561-0.264-0.73-0.816-1.154-1.593-1.255-0.125-0.016-0.247-0.023-0.373-0.020z"></path>
<path fill="#fff" style="fill: var(--color2, #fff)" d="M28.482 1.464c0.26-0.019 0.572-0.015 0.777 0.172 0.191 0.174 0.2 0.453 0.136 0.686-0.154 0.563-0.648 1.238-0.946 1.75-0.476 0.819-0.92 1.662-1.382 2.49-0.286 0.513-0.632 1.038-0.86 1.574-0.073 0.17-0.128 0.349-0.12 0.536 0.007 0.162 0.064 0.285 0.189 0.391 0.177 0.151 0.411 0.268 0.651 0.237 0.16-0.021 0.288-0.105 0.387-0.228 0.339-0.421 0.54-1.008 0.787-1.484l1.707-3.295c0.202-0.394 0.38-0.877 0.663-1.218 0.15-0.18 0.289-0.266 0.528-0.286 0.189-0.016 0.373 0.033 0.519 0.155 0.173 0.145 0.254 0.38 0.219 0.6-0.066 0.423-0.443 0.937-0.644 1.323l-1.55 3.039c-0.276 0.548-0.601 1.108-0.823 1.679-0.052 0.133-0.103 0.281-0.084 0.426 0.023 0.169 0.148 0.317 0.285 0.413 0.153 0.107 0.361 0.178 0.549 0.137 0.216-0.048 0.368-0.204 0.489-0.377 0.276-0.395 0.458-0.913 0.661-1.349l1.323-2.804c0.249-0.532 0.476-1.158 0.809-1.641 0.12-0.174 0.248-0.313 0.468-0.346 0.223-0.034 0.448 0.059 0.617 0.199 0.14 0.116 0.245 0.252 0.251 0.438 0.016 0.477-0.859 2.132-1.097 2.664l-0.938 2.095c-0.46 1.033-0.853 2.069-1.63 2.924-0.764 0.842-1.634 1.199-2.684 1.575-0.221 0.079-0.561 0.157-0.749 0.291-0.371 0.265-0.63 0.756-0.848 1.143-0.167 0.297-0.38 0.62-0.485 0.945-0.154 0.479-0.052 1.943-0.052 2.521l-0.002 7.462 0.004 2.282c0.001 0.447 0.028 0.914-0.022 1.358-0.018 0.163-0.083 0.344-0.203 0.461-0.363 0.353-1.703 0.228-2.217 0.225l-3.504-0.005c0.202-0.536 0.452-1.062 0.715-1.571 0.455-0.047 0.922-0.027 1.379-0.027l2.26 0.001 0-9.752c-0.293 0.693-0.665 1.372-1.002 2.046-0.599 1.194-1.192 2.391-1.779 3.592-0.708 1.46-1.427 2.915-2.158 4.365-0.306 0.606-0.577 1.244-0.924 1.827-0.141 0.236-0.311 0.45-0.547 0.602-0.32 0.204-0.709 0.277-1.082 0.203-0.182-0.037-0.354-0.112-0.505-0.218s-0.279-0.242-0.375-0.398c-0.203-0.326-0.254-0.691-0.144-1.058 0.18-0.599 0.559-1.177 0.859-1.725l1.425-2.608c1.726-3.16 3.466-6.318 5.135-9.506 0.394-0.752 1.285-2.176 1.499-2.884 0.234-0.771-0.257-1.693-0.401-2.451-0.129-0.682-0.113-1.338 0.062-2.010 0.074-0.287 0.178-0.566 0.311-0.832 0.228-0.449 0.503-0.879 0.757-1.314l1.316-2.272 1.062-1.842c0.21-0.363 0.409-0.754 0.663-1.089 0.079-0.104 0.177-0.168 0.29-0.234z"></path>
<path fill="#fff" style="fill: var(--color2, #fff)" d="M4.59 0.099c1.218-0.064 2.464-0.009 3.686-0.008l13.355-0.001c1.030-0 2.101-0.059 3.128 0.006 0.21 0.013 0.449 0.072 0.608 0.217 0.139 0.127 0.199 0.351 0.226 0.529 0.054 0.361 0.022 0.757 0.021 1.123l-0.009 2.076c-0.509 0.818-1.065 1.612-1.6 2.414 0.047-0.538 0.014-1.098 0.014-1.639l-0-3.043c-6.092 0.005-12.191 0.061-18.282-0.004-0.062 2.492-0.005 5-0.005 7.493l0.003 13.783 10.753-0.008c0.471-0.001 0.971-0.034 1.438 0.025-0.173 0.536-0.502 1.075-0.758 1.58l-11.011-0.019c-0.581 0.001-1.186-0.026-1.761 0.058-0.495 0.070-0.962 0.271-1.349 0.583-0.474 0.378-0.819 0.926-0.868 1.534-0.044 0.535 0.169 1.051 0.516 1.455 0.326 0.379 0.828 0.665 1.323 0.759 0.724 0.137 1.799 0.040 2.561 0.042l5.178 0.005c0.963 0.001 1.943-0.040 2.903 0.030-0.17 0.498-0.326 1.037-0.423 1.554-0.868-0.077-1.793-0.014-2.669-0.014l-5.186-0.001c-0.902 0.002-1.93 0.106-2.81-0.083-0.618-0.132-1.199-0.454-1.682-0.851-0.78-0.64-1.271-1.627-1.35-2.619-0.045-0.555-0.012-1.13-0.010-1.687l0.001-2.702-0-9.344-0.002-6.479c-0.001-0.833-0.078-2.299 0.035-3.085 0.106-0.78 0.441-1.513 0.963-2.108 0.769-0.903 1.871-1.468 3.063-1.571zM4.108 1.842c-0.858 0.348-1.487 0.784-1.853 1.654-0.126 0.3-0.16 0.67-0.171 0.994-0.054 1.586-0.004 3.191-0.003 4.778l0.001 9.166 0.001 4.064c0 0.46-0.086 1.088 0.016 1.527l0.037 0.013 0.057-0.037c0.647-0.478 1.195-0.739 1.989-0.905-0.062-2.265-0.008-4.548-0.005-6.814 0.003-2.548-0.042-5.1-0.013-7.647 0.017-1.667 0.020-3.333 0.011-5-0-0.401 0.066-1.447-0.012-1.776l-0.055-0.016z"></path>
</symbol>
<symbol id="icon-logout" viewBox="0 0 32 32">
<path fill="none" stroke="#fff" style="stroke: var(--color2, #fff)" stroke-linejoin="round" stroke-linecap="round" stroke-miterlimit="4" stroke-width="1.3333" d="M13.077 6.5h-3.654c-1.614 0-2.923 1.309-2.923 2.923v13.154c0 1.614 1.309 2.923 2.923 2.923h3.654M11.5 16h14.615M26.115 16l-4.385 4.385M26.115 16l-4.385-4.385"></path>
</symbol>
<symbol id="icon-recycle-black" viewBox="0 0 32 32">
<path stroke-linejoin="round" stroke-linecap="round" stroke-miterlimit="4" stroke-width="1.3333" d="M16 21.846v-8.769M6.5 9.423h2.192M25.5 9.423h-2.192M19.654 9.423h-7.308M19.654 9.423v-1.462c0-0.807-0.654-1.462-1.462-1.462h-4.385c-0.807 0-1.462 0.654-1.462 1.462v1.462M19.654 9.423h3.654M12.346 9.423h-3.654M23.308 9.423v13.154c0 1.614-1.309 2.923-2.923 2.923h-8.769c-1.614 0-2.923-1.309-2.923-2.923v-13.154"></path>
</symbol>
<symbol id="icon-recycle-white" viewBox="0 0 32 32">
<path fill="none" stroke="#fff" style="stroke: var(--color2, #fff)" stroke-linejoin="round" stroke-linecap="round" stroke-miterlimit="4" stroke-width="1.3333" d="M16 21.846v-8.769M6.5 9.423h2.192M25.5 9.423h-2.192M19.654 9.423h-7.308M19.654 9.423v-1.462c0-0.807-0.654-1.462-1.462-1.462h-4.385c-0.807 0-1.462 0.654-1.462 1.462v1.462M19.654 9.423h3.654M12.346 9.423h-3.654M23.308 9.423v13.154c0 1.614-1.309 2.923-2.923 2.923h-8.769c-1.614 0-2.923-1.309-2.923-2.923v-13.154"></path>
</symbol>
<symbol id="icon-vertical-line" viewBox="0 0 1 32">
<path fill="#fff" style="fill: var(--color2, #fff)" d="M0 0.4h0.8v31.2h-0.8v-31.2z"></path>
</symbol>
</defs>
</svg>
